<svg width="20" height="20" viewBox="0 0 20 20" fill="none" xmlns="http://www.w3.org/2000/svg">
<g filter="url(#filter0_d_1287_3247)">
<path d="M10 6C11.6569 6 13 4.65685 13 3C13 1.34315 11.6569 0 10 0C8.34315 0 7 1.34315 7 3C7 4.65685 8.34315 6 10 6ZM12 3C12 4.10457 11.1046 5 10 5C8.89543 5 8 4.10457 8 3C8 1.89543 8.89543 1 10 1C11.1046 1 12 1.89543 12 3Z" fill="black"/>
<path d="M16 11C16 12 15 12 15 12H5C5 12 4 12 4 11C4 10 5 7 10 7C15 7 16 10 16 11ZM15 10.9965C14.9986 10.7497 14.8462 10.0104 14.1679 9.33211C13.5156 8.67985 12.2891 8 9.99999 8C7.71088 8 6.48435 8.67985 5.8321 9.33211C5.15375 10.0104 5.00142 10.7497 5 10.9965H15Z" fill="black"/>
</g>
<defs>
<filter id="filter0_d_1287_3247" x="0" y="0" width="20" height="20" filterUnits="userSpaceOnUse" color-interpolation-filters="sRGB">
<feFlood flood-opacity="0" result="BackgroundImageFix"/>
<feColorMatrix in="SourceAlpha" type="matrix" values="0 0 0 0 0 0 0 0 0 0 0 0 0 0 0 0 0 0 127 0" result="hardAlpha"/>
<feOffset dy="4"/>
<feGaussianBlur stdDeviation="2"/>
<feComposite in2="hardAlpha" operator="out"/>
<feColorMatrix type="matrix" values="0 0 0 0 0 0 0 0 0 0 0 0 0 0 0 0 0 0 0.25 0"/>
<feBlend mode="normal" in2="BackgroundImageFix" result="effect1_dropShadow_1287_3247"/>
<feBlend mode="normal" in="SourceGraphic" in2="effect1_dropShadow_1287_3247" result="shape"/>
</filter>
</defs>
</svg>
